<svg xmlns="http://www.w3.org/2000/svg" xmlns:xlink="http://www.w3.org/1999/xlink" viewBox="0 0 430 430" width="430" height="430" preserveAspectRatio="xMidYMid meet" style="width: 100%; height: 100%; transform: translate3d(0px, 0px, 0px); content-visibility: visible;"><defs><clipPath id="__lottie_element_697"><rect width="430" height="430" x="0" y="0"/></clipPath><clipPath id="__lottie_element_699"><path d="M0,0 L430,0 L430,430 L0,430z"/></clipPath></defs><g clip-path="url(#__lottie_element_697)"><g clip-path="url(#__lottie_element_699)" transform="matrix(1,0,0,1,0,0)" opacity="1" style="display: block;"><g transform="matrix(0.9894502758979797,0,0,0.9894502758979797,214.5,215.5)" opacity="1" style="display: block;"><g opacity="1" transform="matrix(1,0,0,1,0,0)"><path class="primary" fill="rgb(123,95,230)" fill-opacity="1" d=" M0,167.5 C92.50800323486328,167.5 167.5,92.50800323486328 167.5,0 C167.5,-92.50800323486328 92.50800323486328,-167.5 0,-167.5 C-92.50800323486328,-167.5 -167.5,-92.50800323486328 -167.5,0 C-167.5,92.50800323486328 -92.50800323486328,167.5 0,167.5z"/></g><g opacity="0.5" transform="matrix(1,0,0,1,-38.1879997253418,4.656000137329102)" style="mix-blend-mode: multiply;"><path class="primary" fill="rgb(123,95,230)" fill-opacity="1" d=" M63.92599868774414,161.03399658203125 C87.33899688720703,157.4149932861328 109.72000122070312,148.8820037841797 129.5989990234375,135.9949951171875 C90.84300231933594,149.79100036621094 48.37099838256836,148.87899780273438 10.244000434875488,133.4290008544922 C-27.882999420166016,117.97899627685547 -59.01100158691406,89.06900024414062 -77.23100280761719,52.185001373291016 C-95.45099639892578,15.300999641418457 -99.49400329589844,-26.988000869750977 -88.59400177001953,-66.65599822998047 C-77.69400024414062,-106.3239974975586 -52.60900115966797,-140.61000061035156 -18.10099983215332,-163.0050048828125 C-40.41600036621094,-155.0489959716797 -60.792999267578125,-142.45899963378906 -77.8949966430664,-126.06500244140625 C-94.99700164794922,-109.6709976196289 -108.43599700927734,-89.84300231933594 -117.3270034790039,-67.88400268554688 C-126.21800231933594,-45.92499923706055 -130.36099243164062,-22.332000732421875 -129.48399353027344,1.3420000076293945 C-128.60699462890625,25.016000747680664 -122.72899627685547,48.23699951171875 -112.23699951171875,69.47699737548828 C-101.74500274658203,90.71700286865234 -86.875,109.49600219726562 -68.60700225830078,124.58000183105469 C-50.3390007019043,139.66400146484375 -29.083999633789062,150.7100067138672 -6.242000102996826,156.9929962158203 C16.600000381469727,163.2760009765625 40.51300048828125,164.6529998779297 63.92599868774414,161.03399658203125z"/></g></g><g transform="matrix(1.0674632787704468,0,0,1.0674632787704468,215.03160095214844,221.156494140625)" opacity="1" style="display: none;"><g opacity="1" transform="matrix(1,0,0,1,0,0)"><path class="secondary" fill="rgb(255,255,255)" fill-opacity="1" d=" M74.9000015258789,-88.05400085449219 C74.9000015258789,-88.05400085449219 70.96314239501953,-84.05661010742188 70.96314239501953,-84.05661010742188 C70.96314239501953,-84.05661010742188 70.87400817871094,-84.03856658935547 70.87400817871094,-84.03856658935547 C69.5880126953125,-82.75157165527344 70.73336791992188,-83.9522933959961 70.78765869140625,-83.91151428222656 C70.78765869140625,-83.91151428222656 69.34456634521484,-82.52796173095703 69.34456634521484,-82.52796173095703 C68.17256927490234,-81.35595703125 68.27723693847656,-79.3820571899414 69.44923400878906,-78.21005249023438 C69.44923400878906,-78.21005249023438 104.01276397705078,-43.566226959228516 104.01276397705078,-43.566226959228516 C105.18476867675781,-42.394229888916016 107.0837631225586,-42.394229888916016 108.25576782226562,-43.566226959228516 C108.25576782226562,-43.566226959228516 113.79100036621094,-49.16299819946289 113.79100036621094,-49.16299819946289 C114.96299743652344,-50.334999084472656 114.96299743652344,-52.23400115966797 113.79100036621094,-53.40599822998047 C113.79100036621094,-53.40599822998047 79.14299774169922,-88.05400085449219 79.14299774169922,-88.05400085449219 C77.97100067138672,-89.22599792480469 76.0719985961914,-89.22599792480469 74.9000015258789,-88.05400085449219z"/></g><g opacity="0.5" transform="matrix(1,0,0,1,-70.125,25.562000274658203)" style="mix-blend-mode: multiply;"><path class="secondary" fill="rgb(255,255,255)" fill-opacity="1" d=" M140.98196411132812,-109.5845718383789 C140.99253845214844,-109.59513092041016 141.0701446533203,-109.60264587402344 141.0701446533203,-109.60264587402344 C141.0701446533203,-109.60264587402344 176.24176025390625,-68.23326873779297 176.24176025390625,-68.23326873779297 C175.47377014160156,-68.23326873779297 174.70677185058594,-68.52622985839844 174.1207733154297,-69.11222839355469 C174.1207733154297,-69.11222839355469 139.55624389648438,-103.7570571899414 139.55624389648438,-103.7570571899414 C138.39923095703125,-104.91405487060547 138.26324462890625,-106.93370056152344 139.4680633544922,-108.0750961303711 C139.4680633544922,-108.0750961303711 140.9396514892578,-109.50151062011719 140.9396514892578,-109.50151062011719 C140.98631286621094,-109.54630279541016 140.86920166015625,-109.49163055419922 140.98196411132812,-109.5845718383789z"/></g></g><g transform="matrix(0.9894502758979797,0,0,0.9894502758979797,214.9927520751953,220.74310302734375)" opacity="1" style="display: block;"><g opacity="1" transform="matrix(1,0,0,1,0,0)"><path class="secondary" fill="rgb(255,255,255)" fill-opacity="1" d=" M74.9000015258789,-88.05400085449219 C74.9000015258789,-88.05400085449219 -25.54599952697754,12.392999649047852 -25.54599952697754,12.392999649047852 C-25.54599952697754,12.392999649047852 -74.9000015258789,-36.96099853515625 -74.9000015258789,-36.96099853515625 C-76.0719985961914,-38.132999420166016 -77.97100067138672,-38.132999420166016 -79.14299774169922,-36.96099853515625 C-79.14299774169922,-36.96099853515625 -113.79100036621094,-2.312999963760376 -113.79100036621094,-2.312999963760376 C-114.96299743652344,-1.1410000324249268 -114.96299743652344,0.7580000162124634 -113.79100036621094,1.9299999475479126 C-113.79100036621094,1.9299999475479126 -27.66699981689453,88.05400085449219 -27.66699981689453,88.05400085449219 C-26.4950008392334,89.22599792480469 -24.59600067138672,89.22599792480469 -23.423999786376953,88.05400085449219 C-23.423999786376953,88.05400085449219 113.79100036621094,-49.16299819946289 113.79100036621094,-49.16299819946289 C114.96299743652344,-50.334999084472656 114.96299743652344,-52.23400115966797 113.79100036621094,-53.40599822998047 C113.79100036621094,-53.40599822998047 79.14299774169922,-88.05400085449219 79.14299774169922,-88.05400085449219 C77.97100067138672,-89.22599792480469 76.0719985961914,-89.22599792480469 74.9000015258789,-88.05400085449219z"/></g><g opacity="0.5" transform="matrix(1,0,0,1,-70.125,25.562000274658203)" style="mix-blend-mode: multiply;"><path class="secondary" fill="rgb(255,255,255)" fill-opacity="1" d=" M-4.793000221252441,-62.507999420166016 C-4.793000221252441,-62.507999420166016 44.56100082397461,-13.154000282287598 44.56100082397461,-13.154000282287598 C44.56100082397461,-13.154000282287598 44.5620002746582,63.38600158691406 44.5620002746582,63.38600158691406 C43.79399871826172,63.38600158691406 43.027000427246094,63.09400177001953 42.441001892089844,62.507999420166016 C42.441001892089844,62.507999420166016 -43.683998107910156,-23.617000579833984 -43.683998107910156,-23.617000579833984 C-44.840999603271484,-24.77400016784668 -44.85599899291992,-26.639999389648438 -43.72800064086914,-27.815000534057617 C-43.72800064086914,-27.815000534057617 -8.991000175476074,-62.55099868774414 -8.991000175476074,-62.55099868774414 C-7.815999984741211,-63.67900085449219 -5.949999809265137,-63.665000915527344 -4.793000221252441,-62.507999420166016z"/></g></g></g></g></svg>